<?xml version="1.0" standalone="no"?>
<!DOCTYPE svg PUBLIC "-//W3C//DTD SVG 20010904//EN"
 "http://www.w3.org/TR/2001/REC-SVG-20010904/DTD/svg10.dtd">
<svg version="1.0" xmlns="http://www.w3.org/2000/svg"
 width="896.000000pt" height="896.000000pt" viewBox="0 0 896.000000 896.000000"
 preserveAspectRatio="xMidYMid meet">
<metadata>
Created by potrace 1.14, written by Peter Selinger 2001-2017
</metadata>
<g transform="translate(0.000000,896.000000) scale(0.100000,-0.100000)"
fill="#000000" stroke="none">
<path d="M4238 8956 c-1 -2 -34 -6 -73 -10 -128 -11 -299 -39 -435 -72 -14 -3
-29 -7 -35 -8 -49 -12 -248 -75 -295 -93 -8 -4 -17 -7 -20 -7 -44 -10 -348
-155 -445 -213 -68 -40 -188 -116 -200 -126 -5 -4 -41 -30 -79 -57 -153 -111
-383 -323 -520 -480 -215 -247 -423 -593 -544 -905 -54 -140 -64 -166 -67
-177 -2 -5 -3 -9 -5 -10 -1 -2 -3 -10 -5 -18 -2 -8 -16 -55 -30 -105 -14 -49
-28 -98 -30 -108 -2 -10 -6 -26 -9 -35 -3 -9 -7 -28 -10 -42 -2 -14 -11 -62
-20 -106 -8 -45 -18 -103 -21 -130 -4 -27 -8 -60 -11 -74 -2 -14 -7 -61 -12
-105 -10 -108 -9 -3050 1 -3145 4 -41 10 -97 13 -125 3 -27 7 -57 9 -65 3 -8
7 -33 11 -55 3 -22 10 -60 15 -85 5 -25 11 -54 13 -65 3 -17 10 -46 31 -135 9
-37 46 -166 52 -180 3 -8 7 -19 8 -25 6 -24 52 -146 76 -200 7 -16 13 -32 14
-35 21 -66 219 -447 244 -470 3 -3 33 -45 66 -95 33 -49 65 -97 72 -105 7 -8
35 -44 63 -80 75 -95 135 -162 231 -259 85 -86 282 -261 294 -261 3 0 16 -9
28 -21 60 -56 360 -244 487 -306 227 -109 484 -202 658 -238 9 -2 40 -9 67
-15 28 -6 64 -13 80 -16 17 -2 39 -6 50 -8 11 -2 45 -7 75 -11 30 -4 66 -9 80
-11 141 -22 477 -22 675 0 29 3 135 19 145 21 3 1 30 5 60 10 30 5 57 9 60 10
3 1 19 4 35 8 17 4 39 9 50 12 87 20 125 31 235 67 69 22 136 45 150 51 14 6
27 11 30 12 3 1 22 9 44 18 21 9 40 17 42 17 2 0 54 25 116 55 179 87 305 162
453 267 55 39 102 74 105 77 3 3 28 24 55 46 86 69 95 77 215 195 110 109 246
263 300 340 13 19 27 37 30 40 21 17 243 370 245 390 1 3 19 39 40 80 21 41
39 77 40 80 0 3 13 32 28 64 52 112 152 403 171 498 3 13 14 64 25 113 35 156
50 266 67 475 8 105 9 2837 0 2975 -3 55 -8 111 -10 125 -2 14 -7 52 -11 85
-11 106 -15 128 -36 230 -22 109 -76 318 -89 350 -5 11 -16 43 -25 70 -51 159
-248 580 -277 593 -5 2 -8 8 -8 13 0 13 -140 223 -151 227 -5 2 -9 8 -9 14 0
8 -73 103 -141 183 -131 155 -346 359 -473 450 -16 11 -33 25 -40 30 -6 6 -27
22 -46 35 -19 13 -39 28 -45 33 -27 22 -166 107 -175 107 -5 0 -10 3 -10 8 0
4 -10 12 -23 18 -12 6 -78 40 -147 75 -161 83 -211 104 -385 165 -61 22 -182
59 -225 69 -8 2 -15 4 -15 5 0 1 -9 3 -20 5 -11 2 -63 12 -115 23 -52 11 -120
23 -150 28 -69 11 -74 11 -80 14 -22 8 -573 23 -582 16z m490 -331 c52 -5 155
-20 218 -30 16 -3 91 -21 165 -40 74 -20 142 -37 151 -39 9 -3 26 -10 37 -16
12 -6 21 -8 21 -4 0 3 7 0 17 -7 9 -8 18 -13 19 -12 18 12 372 -155 491 -230
l41 -26 -678 -680 c-374 -375 -680 -681 -682 -681 -3 0 -2 1733 1 1767 1 12
73 11 199 -2z m-522 -851 c0 -470 -3 -854 -6 -854 -6 0 -162 163 -217 226 -18
21 -155 171 -223 243 -19 21 -78 84 -130 141 -52 57 -111 120 -130 141 -19 21
-69 75 -110 119 -41 45 -91 99 -110 119 -19 21 -73 80 -120 131 -47 51 -102
112 -123 134 -35 38 -37 41 -20 53 10 7 24 17 31 23 6 6 12 8 12 4 0 -4 8 0
18 9 56 50 454 228 565 253 4 1 9 3 12 4 3 1 8 3 13 4 4 2 32 10 62 19 66 20
284 64 360 73 30 3 56 7 58 9 1 1 15 2 30 3 l28 1 0 -855z m-1296 65 c119
-130 98 -108 212 -231 54 -57 107 -115 119 -129 11 -13 66 -73 122 -133 149
-159 155 -166 237 -256 41 -46 91 -100 110 -120 30 -32 172 -186 235 -255 11
-12 65 -71 120 -130 55 -59 112 -121 126 -136 l27 -29 0 -445 c0 -245 -3 -445
-6 -445 -4 0 -20 15 -37 34 -30 34 -206 221 -307 327 -29 31 -107 114 -173
184 -66 71 -138 147 -160 170 -22 23 -92 97 -155 165 -63 67 -139 148 -168
179 -30 31 -104 110 -165 175 -62 65 -132 140 -157 166 -25 25 -78 82 -119
126 -70 75 -239 254 -405 429 -42 44 -76 82 -76 85 0 3 14 21 31 40 16 19 49
57 72 85 71 83 191 200 332 324 11 10 26 -5 185 -180z m3290 154 c98 -83 337
-331 388 -404 12 -17 -71 -103 -1014 -1049 -566 -566 -1030 -1028 -1031 -1026
-2 2 -4 205 -4 452 l0 448 138 138 c76 76 437 439 803 807 366 368 667 670
670 670 3 1 26 -16 50 -36z m620 -748 c0 -7 4 -15 9 -17 29 -11 250 -518 243
-558 0 -3 4 -10 9 -16 5 -6 11 -26 14 -45 6 -37 -7 -53 -185 -219 -25 -23
-121 -115 -214 -204 -93 -88 -187 -179 -211 -201 -23 -22 -124 -119 -226 -217
-101 -97 -209 -200 -239 -228 -30 -29 -122 -116 -203 -194 -82 -77 -177 -168
-212 -201 -34 -33 -140 -134 -235 -225 -95 -91 -199 -190 -231 -220 -31 -30
-116 -111 -188 -180 -73 -69 -193 -184 -269 -257 -75 -72 -138 -130 -140 -128
-2 2 -3 209 -3 460 l1 457 1122 1125 c1114 1115 1123 1124 1141 1102 9 -12 17
-27 17 -34z m-4693 31 c4 -8 69 -78 144 -157 75 -79 151 -160 169 -179 32 -34
245 -260 345 -365 28 -29 100 -106 160 -170 61 -65 126 -135 145 -155 19 -20
94 -99 165 -175 72 -76 153 -162 180 -190 28 -29 104 -110 170 -181 66 -70
140 -149 165 -175 25 -26 95 -100 155 -164 61 -65 130 -139 155 -165 25 -26
66 -69 91 -97 l47 -50 0 -449 1 -448 -92 95 c-51 53 -150 157 -222 233 -71 75
-161 169 -200 210 -38 40 -137 144 -220 231 -82 87 -170 179 -194 204 -24 25
-99 105 -167 176 -67 72 -149 157 -181 191 -58 61 -338 355 -403 424 -19 20
-99 104 -177 186 -78 82 -167 176 -198 209 -72 76 -222 233 -293 307 l-55 56
32 89 c56 153 112 277 211 461 34 62 52 75 67 48z m-246 -1128 c79 -83 160
-168 179 -188 113 -119 385 -405 570 -600 25 -27 115 -121 200 -211 85 -89
171 -179 190 -199 33 -35 305 -321 380 -400 72 -75 327 -343 370 -389 25 -26
109 -115 187 -197 78 -82 168 -178 201 -213 l60 -63 0 -449 1 -449 -57 59
c-51 52 -331 346 -407 426 -16 18 -103 109 -193 202 -89 94 -185 195 -213 224
-46 49 -290 305 -399 419 -25 26 -110 116 -190 200 -80 84 -172 180 -205 215
-33 34 -127 134 -210 220 -82 87 -170 179 -195 205 -25 26 -109 114 -187 196
-77 82 -173 182 -212 223 l-70 74 1 62 c1 34 -2 67 -6 73 -4 7 -3 12 3 12 6 0
7 11 3 28 -4 15 -7 38 -5 52 1 14 4 104 7 200 3 96 7 184 10 196 2 11 7 45 10
75 4 30 8 63 10 74 3 11 5 32 5 48 1 15 5 27 9 27 5 0 73 -68 153 -152z m5308
15 c1 -21 4 -54 6 -73 13 -107 17 -213 19 -468 0 -155 -1 -289 -4 -297 -3 -7
-605 -615 -1337 -1349 l-1333 -1336 0 83 c0 45 -1 280 -1 521 l-1 439 73 70
c41 39 152 145 248 236 204 196 248 238 456 436 87 83 182 173 210 200 29 28
131 125 226 216 96 91 223 213 283 270 60 57 135 129 166 159 32 30 131 125
220 210 90 85 195 186 234 223 39 38 133 128 209 200 77 73 178 169 225 214
48 46 89 83 93 83 3 0 6 -17 8 -37z m-5324 -1368 c17 -17 100 -105 185 -194
85 -90 182 -191 215 -226 51 -53 243 -254 390 -410 96 -101 356 -374 425 -446
41 -43 136 -142 210 -220 74 -79 155 -164 180 -189 25 -26 113 -118 195 -205
83 -87 184 -193 225 -236 70 -72 163 -171 219 -232 l23 -26 -455 0 -455 0
-763 765 c-420 420 -767 770 -771 779 -8 14 -9 26 -7 132 1 28 -2 56 -6 62 -3
6 -2 11 4 11 6 0 7 11 3 28 -4 15 -6 38 -5 52 4 35 5 91 4 120 -1 14 -1 32 0
40 0 8 0 26 0 40 -1 14 -1 32 0 40 0 8 0 27 0 43 -1 15 -1 39 -2 55 -1 28 0
53 2 146 1 30 -2 59 -5 65 -4 6 -3 11 3 11 6 0 7 11 3 28 -4 15 -6 41 -5 57 2
17 3 46 3 66 l0 36 78 -80 c42 -44 91 -95 107 -112z m5348 -387 c0 -233 -2
-430 -2 -440 -1 -9 -347 -363 -770 -786 l-768 -770 -452 0 c-249 0 -451 2
-449 4 2 2 550 553 1218 1223 769 772 1217 1215 1220 1206 3 -8 4 -205 3 -437z
m-4988 -1452 l543 -545 -488 0 -487 0 -19 77 c-10 42 -19 82 -20 87 -12 50
-16 66 -24 110 -11 61 -20 118 -26 168 -2 20 -6 56 -9 80 -6 44 -17 287 -16
347 2 91 0 144 -5 151 -3 5 -1 9 5 9 6 0 6 11 1 30 -5 17 -6 30 -4 30 3 0 250
-245 549 -544z m4988 342 c-1 -112 -4 -234 -8 -273 -11 -132 -13 -150 -20
-205 -4 -30 -13 -89 -21 -130 -8 -41 -17 -86 -20 -100 -8 -40 -23 -102 -36
-142 l-11 -37 -484 1 c-266 0 -483 2 -481 4 7 8 1080 1084 1082 1084 0 0 0
-91 -1 -202z m-250 -1208 c9 0 17 -4 17 -10 0 -16 -112 -245 -121 -248 -5 -2
-9 -9 -9 -14 0 -10 -25 -54 -103 -183 -7 -11 -14 -22 -18 -25 -3 -3 -20 -29
-39 -57 -18 -29 -37 -53 -41 -53 -4 0 -10 -8 -13 -18 -4 -10 -22 -36 -41 -58
l-35 -39 -2115 -1 -2116 -1 -72 96 c-39 53 -101 144 -138 202 -86 137 -216
399 -201 407 7 5 4617 7 5045 2z m-748 -1030 l40 -1 -25 -20 c-14 -11 -36 -30
-50 -42 -89 -78 -335 -246 -412 -283 -21 -10 -38 -21 -38 -26 0 -4 -5 -8 -10
-8 -6 0 -57 -22 -113 -49 -116 -56 -250 -111 -272 -111 -8 0 -15 -4 -15 -8 0
-5 -6 -9 -12 -9 -7 0 -58 -14 -114 -31 -55 -17 -118 -33 -138 -36 -21 -4 -41
-8 -45 -10 -3 -2 -22 -7 -41 -10 -19 -3 -46 -8 -60 -11 -14 -3 -45 -8 -70 -11
-25 -3 -56 -7 -70 -10 -129 -22 -537 -21 -653 2 -12 2 -40 6 -63 9 -39 4 -216
39 -259 51 -11 3 -31 7 -44 10 -46 10 -267 86 -351 122 -109 46 -253 120 -358
186 -46 28 -91 56 -101 61 -34 20 -207 153 -246 188 -22 20 -44 37 -50 37 -5
1 -2 4 7 8 13 5 3383 8 3563 2z"/>
</g>
</svg>
